<svg
  xmlns="http://www.w3.org/2000/svg"
  width="142.636"
  height="158.33"
  viewBox="0 0 142.636 158.33"
>
  <g
    id="Next_steps-pana"
    data-name="Next steps-pana"
    transform="translate(-44.91 -27.16)"
  >
    <g
      id="freepik--background-complete--inject-94"
      transform="translate(44.91 27.16)"
    >
      <path
        id="Path_480"
        data-name="Path 480"
        d="M126.08,207.9l17.449-.8-3.171,17.041Z"
        transform="translate(-98.04 -144.94)"
        fill="#ebebeb"
      />
      <rect
        id="Rectangle_61"
        data-name="Rectangle 61"
        width="9.849"
        height="39.827"
        transform="translate(33.629 66.028) rotate(48.68)"
        fill="#ebebeb"
      />
      <path
        id="Path_481"
        data-name="Path 481"
        d="M332.1,131.671l17.449-.8-3.171,17.041Z"
        transform="translate(-232.89 -95.043)"
        fill="#ebebeb"
      />
      <rect
        id="Rectangle_62"
        data-name="Rectangle 62"
        width="9.849"
        height="39.827"
        transform="translate(104.798 39.693) rotate(48.68)"
        fill="#ebebeb"
      />
      <path
        id="Path_482"
        data-name="Path 482"
        d="M138.72,143.675l11.193-.515-2.031,10.934Z"
        transform="translate(-106.313 -103.088)"
        fill="#f5f5f5"
      />
      <rect
        id="Rectangle_63"
        data-name="Rectangle 63"
        width="6.318"
        height="25.553"
        transform="translate(35.992 42.554) rotate(48.68)"
        fill="#f5f5f5"
      />
      <path
        id="Path_483"
        data-name="Path 483"
        d="M415.49,145.4l11.2-.515-2.035,10.934Z"
        transform="translate(-287.473 -104.22)"
        fill="#f5f5f5"
      />
      <rect
        id="Rectangle_64"
        data-name="Rectangle 64"
        width="6.318"
        height="25.553"
        transform="translate(131.599 43.153) rotate(48.68)"
        fill="#f5f5f5"
      />
      <rect
        id="Rectangle_65"
        data-name="Rectangle 65"
        width="17.735"
        height="5.862"
        rx="2.43"
        transform="translate(85.637 131.188)"
        fill="#ebebeb"
      />
      <path
        id="Path_484"
        data-name="Path 484"
        d="M321.977,395.63a1.1,1.1,0,0,0,.432-.142.84.84,0,0,0,.345-.425,2.577,2.577,0,0,0,.041-.753v-3.427a1.174,1.174,0,0,0-.107-.667.781.781,0,0,0-.567-.377l-16.164.017a.753.753,0,0,0-.739.622c-.024.345,0,.77,0,1.147v2.829a2.564,2.564,0,0,0,.024.525.757.757,0,0,0,.715.56h2.1l7.254.017,4.905.028,1.33.017h0l-1.33.017-4.905.028-7.254.021h-2.1a.926.926,0,0,1-.877-.691,2.5,2.5,0,0,1-.035-.57v-4a.929.929,0,0,1,.915-.774c6.318,0,12.025,0,16.184.035a.905.905,0,0,1,.649.442.891.891,0,0,1,.117.37v3.772a2.58,2.58,0,0,1-.059.77.842.842,0,0,1-.366.435.782.782,0,0,1-.345.111.433.433,0,0,1-.162.066Z"
        transform="translate(-215.178 -264.415)"
        fill="#e0e0e0"
      />
      <rect
        id="Rectangle_66"
        data-name="Rectangle 66"
        width="17.735"
        height="5.862"
        rx="2.43"
        transform="translate(0 26.095)"
        fill="#f5f5f5"
      />
      <path
        id="Path_485"
        data-name="Path 485"
        d="M87.325,91.422a1.016,1.016,0,0,0,.432-.142.826.826,0,0,0,.345-.425,2.56,2.56,0,0,0,.041-.753q0-.874,0-2.111V86.676a1.175,1.175,0,0,0-.107-.667.791.791,0,0,0-.563-.377l-16.209.021a.76.76,0,0,0-.739.625c-.024.345,0,.767,0,1.147v2.822a2.563,2.563,0,0,0,.024.525.76.76,0,0,0,.715.563h2.1l7.254.017,4.9.031,1.33.017H87.2a.535.535,0,0,1,.117,0,.449.449,0,0,1-.117,0H85.522l-4.9.028-7.254.021h-2.1a.926.926,0,0,1-.877-.691,2.5,2.5,0,0,1-.035-.57V86.244a.933.933,0,0,1,.912-.774c6.322,0,12.025,0,16.184.038a.9.9,0,0,1,.649.439.891.891,0,0,1,.117.37v3.772a2.6,2.6,0,0,1-.059.774.87.87,0,0,1-.366.435.767.767,0,0,1-.345.111A.512.512,0,0,1,87.325,91.422Z"
        transform="translate(-61.561 -65.327)"
        fill="#e0e0e0"
      />
      <rect
        id="Rectangle_67"
        data-name="Rectangle 67"
        width="17.735"
        height="5.862"
        rx="2.43"
        transform="translate(124.901 141.648)"
        fill="#ebebeb"
      />
      <path
        id="Path_486"
        data-name="Path 486"
        d="M413.9,315.751a.968.968,0,0,0,.432-.142.829.829,0,0,0,.345-.421,2.6,2.6,0,0,0,.038-.757v-3.423a1.152,1.152,0,0,0-.111-.67.763.763,0,0,0-.563-.373l-16.164.017a.75.75,0,0,0-.739.622c-.024.345,0,.77,0,1.147v2.826a2.584,2.584,0,0,0,.024.528.756.756,0,0,0,.712.56h2.1l7.272.021,4.9.028h1.679a.471.471,0,0,1,.121,0h-.466l-1.333.017-4.9.031-7.272.017h-2.1a.929.929,0,0,1-.877-.691,2.521,2.521,0,0,1-.031-.573v-4a.933.933,0,0,1,.919-.77c6.318,0,12.025,0,16.181.035a.9.9,0,0,1,.653.442.872.872,0,0,1,.114.366v3.786a2.594,2.594,0,0,1-.062.774.822.822,0,0,1-.363.435.784.784,0,0,1-.345.111A.5.5,0,0,1,413.9,315.751Z"
        transform="translate(-275.342 -212.123)"
        fill="#e0e0e0"
      />
      <path
        id="Path_487"
        data-name="Path 487"
        d="M99.434,359.158a.943.943,0,0,0,.432-.142.8.8,0,0,0,.345-.421,2.733,2.733,0,0,0,.038-.757v-3.423a1.182,1.182,0,0,0-.111-.67.763.763,0,0,0-.563-.373l-16.164.017a.746.746,0,0,0-.739.622c-.024.345,0,.77,0,1.147v2.829a2.156,2.156,0,0,0,.024.525.75.75,0,0,0,.712.56h2.1l7.254.021,4.9.028h1.679a.421.421,0,0,1,.117,0,.5.5,0,0,1-.117,0H97.665l-4.9.031-7.254.017H83.36a.926.926,0,0,1-.877-.691,2.5,2.5,0,0,1-.031-.57V353.9a.936.936,0,0,1,.919-.77c6.318,0,12.025,0,16.181.035a.891.891,0,0,1,.649.442.829.829,0,0,1,.117.37v3.769a2.6,2.6,0,0,1-.062.867.836.836,0,0,1-.345.435.8.8,0,0,1-.345.111A.537.537,0,0,1,99.434,359.158Z"
        transform="translate(-69.48 -240.524)"
        fill="#e0e0e0"
      />
      <path
        id="Path_488"
        data-name="Path 488"
        d="M397.524,95.4a1.037,1.037,0,0,0,.432-.142.826.826,0,0,0,.345-.425,2.683,2.683,0,0,0,.042-.753c0-.584,0-1.289-.017-2.111V90.656a1.147,1.147,0,0,0-.111-.667.777.777,0,0,0-.591-.377H381.461a.753.753,0,0,0-.739.625c-.024.345,0,.767,0,1.143V94.21a2.564,2.564,0,0,0,.024.525.757.757,0,0,0,.712.563h9.372l4.9.031h1.679a.535.535,0,0,1,.117,0,.449.449,0,0,1-.117,0h-1.679l-4.9.028-7.272.021h-2.1a.929.929,0,0,1-.877-.691,2.7,2.7,0,0,1-.031-.57V91.4c0-.39-.017-.757,0-1.175a.933.933,0,0,1,.915-.774c6.318,0,12.025,0,16.181.038a.9.9,0,0,1,.674.439.891.891,0,0,1,.117.37v3.772a2.6,2.6,0,0,1-.062.774.85.85,0,0,1-.363.435.784.784,0,0,1-.345.111A.5.5,0,0,1,397.524,95.4Z"
        transform="translate(-264.595 -67.932)"
        fill="#e0e0e0"
      />
      <rect
        id="Rectangle_68"
        data-name="Rectangle 68"
        width="17.735"
        height="5.862"
        rx="2.43"
        transform="translate(53.051 146.751)"
        fill="#ebebeb"
      />
      <rect
        id="Rectangle_69"
        data-name="Rectangle 69"
        width="17.735"
        height="5.862"
        rx="2.43"
        transform="translate(121.64 0)"
        fill="#f5f5f5"
      />
    </g>
    <g id="freepik--Stairs--inject-94" transform="translate(44.941 115.54)">
      <path
        id="Path_489"
        data-name="Path 489"
        d="M45,352.5h1.444l4.176-.066,15.58-.052-.111.114c0-4.342,0-9.272-.028-14.685v-.138H66.2l24.34-.028-.169.166V324.039h27.411l-.18.18V308.446h.176l27.429.021-.155.156c.017-9.769.028-18.385.041-25.5V283h.114l17.231.055,4.6.028,1.185.017h.3a.4.4,0,0,1,.1,0h-1.589l-4.6.031-17.231.055.117-.117c0,7.113.024,15.728.041,25.5v.155h-.159l-27.429.021.176-.176v15.777H90.541l.173-.173v13.763h-.166l-24.34-.024.142-.142c0,5.413-.021,10.343-.028,14.685v.114h-.114l-15.58-.052-4.176-.031H45.1A.264.264,0,0,1,45,352.5Z"
        transform="translate(-45 -283)"
        fill="#263238"
      />
    </g>
    <g id="freepik--Plant--inject-94" transform="translate(45.265 167.778)">
      <path
        id="Path_490"
        data-name="Path 490"
        d="M60.615,434.232a3.313,3.313,0,0,1,1.727,1.945,5.8,5.8,0,0,1,.228,2.632,10.318,10.318,0,0,1-2.207,4.8c-1.441-1.254-1.769-3.455-1.869-4.567-.155-1.772.643-5.071,2.135-4.809"
        transform="translate(-54.144 -434.217)"
        fill="#4ba541"
      />
      <path
        id="Path_491"
        data-name="Path 491"
        d="M68.635,462.807a2.826,2.826,0,0,1,.912-2.684,3.752,3.752,0,0,1,2.764-.864,1.575,1.575,0,0,1,1.213.546,1.209,1.209,0,0,1,.021,1.223,2.5,2.5,0,0,1-.9.895,4.856,4.856,0,0,1-4.007.884"
        transform="translate(-60.758 -450.598)"
        fill="#4ba541"
      />
      <path
        id="Path_492"
        data-name="Path 492"
        d="M63.4,471.285a1.725,1.725,0,0,1,.052-.345c.045-.245.1-.563.173-.947a9.927,9.927,0,0,1,.978-3.033,6.079,6.079,0,0,1,2.176-2.311,4.081,4.081,0,0,1,.888-.39,1.983,1.983,0,0,1,.256-.066.255.255,0,0,1,.09,0,6.6,6.6,0,0,0-1.188.546,6.274,6.274,0,0,0-2.111,2.3,10.581,10.581,0,0,0-1,2.96c-.086.4-.159.719-.214.94a1.926,1.926,0,0,1-.1.349Z"
        transform="translate(-57.367 -453.835)"
        fill="#263238"
      />
      <path
        id="Path_493"
        data-name="Path 493"
        d="M63.422,441.69a.6.6,0,0,1,.021.152,3.14,3.14,0,0,0,.024.442c.021.384.045.936.066,1.62.045,1.382.079,3.261.069,5.351s-.059,3.983-.114,5.351c-.031.691-.055,1.237-.079,1.62,0,.18-.024.325-.031.439a.828.828,0,0,1-.017.155.55.55,0,0,1,0-.155v-.442c0-.4.021-.947.038-1.62.035-1.382.073-3.258.079-5.348s0-3.98-.035-5.348c0-.674,0-1.223-.024-1.624v-.439a1.32,1.32,0,0,1,0-.155Z"
        transform="translate(-57.337 -439.109)"
        fill="#263238"
      />
      <path
        id="Path_494"
        data-name="Path 494"
        d="M51.324,462.961a6.605,6.605,0,0,0-3.607-4.836,1.392,1.392,0,0,0-1.5-.021,1.368,1.368,0,0,0-.114,1.5,5.638,5.638,0,0,0,5.182,3.506"
        transform="translate(-45.937 -449.712)"
        fill="#4ba541"
      />
      <path
        id="Path_495"
        data-name="Path 495"
        d="M51.76,463.25a1.865,1.865,0,0,1,.307.135,3.543,3.543,0,0,1,.345.183c.128.083.283.159.439.276a5.918,5.918,0,0,1,.5.377,6.767,6.767,0,0,1,.535.487,6.8,6.8,0,0,1,1.686,2.819,6.041,6.041,0,0,1,.169.691,5.733,5.733,0,0,1,.086.625c.024.19.017.366.024.518a2.681,2.681,0,0,1,0,.39,1.867,1.867,0,0,1-.035.346c-.031,0,.021-.477-.066-1.233a4.981,4.981,0,0,0-.1-.611,6.722,6.722,0,0,0-.176-.691,7.622,7.622,0,0,0-.667-1.485,7.781,7.781,0,0,0-.991-1.289c-.176-.176-.345-.345-.518-.487s-.345-.27-.487-.383C52.188,463.475,51.749,463.274,51.76,463.25Z"
        transform="translate(-49.748 -453.221)"
        fill="#263238"
      />
    </g>
    <g
      id="freepik--speech-bubble--inject-94"
      transform="translate(130.768 36.82)"
    >
      <path
        id="Path_496"
        data-name="Path 496"
        d="M293.58,64.063l3.019-1.444a10.774,10.774,0,1,1-.522,3.824h0Z"
        transform="translate(-293.535 -55.165)"
        fill="#fff"
      />
      <path
        id="Path_497"
        data-name="Path 497"
        d="M293.495,64.021l.152.155.466.456c.425.415,1.036,1.019,1.852,1.8a.038.038,0,0,0,.052,0h-.073a10.76,10.76,0,0,0,1.5,5.078,10.883,10.883,0,0,0,.967,1.382,11.9,11.9,0,0,0,1.264,1.275,10.709,10.709,0,0,0,3.375,1.983,10.878,10.878,0,0,0,8.747-.6,10.71,10.71,0,0,0,3.721-3.251,10.592,10.592,0,0,0,1.928-4.795l.086-.663.021-.663v-.345l-.021-.345-.038-.656c-.024-.218-.066-.432-.1-.649a5.638,5.638,0,0,0-.121-.639,10.036,10.036,0,0,0-.366-1.24,10.814,10.814,0,0,0-14.785-6.146,11.592,11.592,0,0,0-1.565.891,14.51,14.51,0,0,0-1.3,1.061,10.709,10.709,0,0,0-2.809,4.491v-.021l-2.249,1.1-.567.283-.187.093s.073-.028.2-.09l.587-.273,2.242-1.036a.031.031,0,0,0,.021-.021,10.71,10.71,0,0,1,2.819-4.418,14.4,14.4,0,0,1,1.292-1.036,11.912,11.912,0,0,1,1.548-.874A10.737,10.737,0,0,1,314.08,58.28a10.913,10.913,0,0,1,2.7,4.056,10.317,10.317,0,0,1,.345,1.219,5.654,5.654,0,0,1,.117.632c.031.211.072.421.093.636l.038.649.021.325v.325l-.021.653-.083.653A10.485,10.485,0,0,1,315.4,72.15a10.612,10.612,0,0,1-3.658,3.2,10.744,10.744,0,0,1-8.619.615,10.626,10.626,0,0,1-3.337-1.945,11.936,11.936,0,0,1-1.254-1.254,10.326,10.326,0,0,1-.964-1.347,10.833,10.833,0,0,1-1.527-5.023.034.034,0,0,0-.038-.035.038.038,0,0,0-.035.028h0l.062-.017-1.865-1.751-.487-.453Z"
        transform="translate(-293.45 -55.124)"
        fill="#263238"
      />
      <circle
        id="Ellipse_2"
        data-name="Ellipse 2"
        cx="6.36"
        cy="6.36"
        r="6.36"
        transform="translate(6.971 4.963)"
        fill="#4ba541"
      />
      <circle
        id="Ellipse_3"
        data-name="Ellipse 3"
        cx="6.36"
        cy="6.36"
        r="6.36"
        transform="translate(6.971 4.963)"
        opacity="0.3"
      />
      <circle
        id="Ellipse_4"
        data-name="Ellipse 4"
        cx="6.36"
        cy="6.36"
        r="6.36"
        transform="matrix(0.926, -0.378, 0.378, 0.926, 5.037, 7.134)"
        fill="#4ba541"
      />
      <circle
        id="Ellipse_5"
        data-name="Ellipse 5"
        cx="4.259"
        cy="4.259"
        r="4.259"
        transform="translate(7.31 10.621) rotate(-45)"
        fill="#fff"
      />
      <circle
        id="Ellipse_6"
        data-name="Ellipse 6"
        cx="2.083"
        cy="2.083"
        r="2.083"
        transform="translate(11.248 8.538)"
        fill="#4ba541"
      />
      <path
        id="Path_498"
        data-name="Path 498"
        d="M344.543,67.016l-.173-1.358,1.382-1.479.1,1.465Z"
        transform="translate(-326.78 -61.052)"
        fill="#455a64"
      />
      <path
        id="Path_499"
        data-name="Path 499"
        d="M348.135,69.044l-1.4-.114-1.406,1.351,1.406.152Z"
        transform="translate(-327.408 -64.161)"
        fill="#455a64"
      />
      <path
        id="Path_500"
        data-name="Path 500"
        d="M332.85,77.317l4.864-3.724a6.049,6.049,0,0,0-.611-.743l-4.253,4.135Z"
        transform="translate(-319.239 -66.727)"
        opacity="0.3"
      />
      <path
        id="Path_501"
        data-name="Path 501"
        d="M337.685,67.677l-1.979,1.979-3.14,3.14-.722.722a.252.252,0,0,0,.346.345l1.993-1.983,3.14-3.14.722-.722c.228-.228-.128-.58-.345-.345Z"
        transform="translate(-318.557 -63.287)"
        fill="#263238"
      />
    </g>
    <g id="freepik--Character--inject-94" transform="translate(83.228 27.283)">
      <path
        id="Path_502"
        data-name="Path 502"
        d="M243.14,55.707,244.473,41.1c.207-3.651,2.508-6.564,6.149-6.26l.346.048a6.536,6.536,0,0,1,5.589,6.874c-.2,3.164-.459,6.653-.722,8.329a4.239,4.239,0,0,1-4.107,3.486s-.238,2.118-.346,3.144l-.439,2.384-1.783-.9Z"
        transform="translate(-212.979 -32.295)"
        fill="#ffbf9d"
      />
      <path
        id="Path_503"
        data-name="Path 503"
        d="M259.8,84.993A8.474,8.474,0,0,1,255.47,83a4.361,4.361,0,0,0,4.221,2.954Z"
        transform="translate(-221.05 -63.833)"
        fill="#ff9a6c"
      />
      <path
        id="Path_504"
        data-name="Path 504"
        d="M275.575,62.576a.5.5,0,0,1-.553.428.477.477,0,0,1-.446-.518.5.5,0,0,1,.549-.432.48.48,0,0,1,.449.522Z"
        transform="translate(-233.555 -50.122)"
        fill="#263238"
      />
      <path
        id="Path_505"
        data-name="Path 505"
        d="M275.439,57.391c-.073.055-.408-.276-.94-.345s-.964.135-1.012.059.055-.138.242-.238a1.354,1.354,0,0,1,.822-.128,1.306,1.306,0,0,1,.736.345C275.436,57.239,275.474,57.363,275.439,57.391Z"
        transform="translate(-232.836 -46.632)"
        fill="#263238"
      />
      <path
        id="Path_506"
        data-name="Path 506"
        d="M262.1,60.762a.5.5,0,0,1-.556.432.473.473,0,0,1-.446-.518.5.5,0,0,1,.549-.432.48.48,0,0,1,.453.518Z"
        transform="translate(-224.731 -48.936)"
        fill="#263238"
      />
      <path
        id="Path_507"
        data-name="Path 507"
        d="M260.279,55.564c-.073.055-.408-.276-.94-.345s-.964.135-1.012.062.055-.142.245-.242a1.382,1.382,0,0,1,.819-.128,1.351,1.351,0,0,1,.739.345C260.279,55.415,260.3,55.539,260.279,55.564Z"
        transform="translate(-222.913 -45.437)"
        fill="#263238"
      />
      <path
        id="Path_508"
        data-name="Path 508"
        d="M267.8,61.007a3.886,3.886,0,0,1,.888-.031c.138,0,.273,0,.307-.09a.725.725,0,0,0-.031-.418c-.083-.345-.166-.712-.256-1.1a18.059,18.059,0,0,1-.511-2.843,18.065,18.065,0,0,1,.739,2.795c.083.383.162.75.235,1.1a.78.78,0,0,1,0,.546.345.345,0,0,1-.252.166,1.064,1.064,0,0,1-.235,0A3.341,3.341,0,0,1,267.8,61.007Z"
        transform="translate(-229.121 -46.507)"
        fill="#263238"
      />
      <path
        id="Path_509"
        data-name="Path 509"
        d="M260.564,50.61c-.093.128-.591-.09-1.219-.2s-1.168-.083-1.209-.231c-.021-.069.1-.176.345-.256a2.045,2.045,0,0,1,.964-.052,2.121,2.121,0,0,1,.884.366C260.526,50.406,260.606,50.551,260.564,50.61Z"
        transform="translate(-222.794 -42.128)"
        fill="#263238"
      />
      <path
        id="Path_510"
        data-name="Path 510"
        d="M275.831,52.774c-.124.107-.546-.076-1.067-.149s-.978-.045-1.061-.187c-.038-.066.048-.18.256-.269a1.7,1.7,0,0,1,.895-.086,1.655,1.655,0,0,1,.822.345C275.845,52.587,275.89,52.729,275.831,52.774Z"
        transform="translate(-232.979 -43.58)"
        fill="#263238"
      />
      <path
        id="Path_511"
        data-name="Path 511"
        d="M241.861,59.706c-.055-.035-2.283-1.036-2.549,1.333a1.812,1.812,0,0,0,2.194,2.093C241.516,63.068,241.861,59.706,241.861,59.706Z"
        transform="translate(-210.46 -48.43)"
        fill="#ffbf9d"
      />
      <path
        id="Path_512"
        data-name="Path 512"
        d="M242,63.558a.775.775,0,0,1-.121.048.421.421,0,0,1-.311-.028,1.036,1.036,0,0,1-.373-.978,1.4,1.4,0,0,1,.183-.58.484.484,0,0,1,.345-.283.207.207,0,0,1,.231.142.178.178,0,0,1,0,.121c0,.007.055-.035.048-.135a.276.276,0,0,0-.079-.159.3.3,0,0,0-.221-.086.58.58,0,0,0-.477.321,1.432,1.432,0,0,0-.218.646,1.089,1.089,0,0,0,.49,1.1.449.449,0,0,0,.387-.021C241.989,63.613,242.009,63.561,242,63.558Z"
        transform="translate(-211.583 -49.839)"
        fill="#ff9a6c"
      />
      <path
        id="Path_513"
        data-name="Path 513"
        d="M258.014,34.2a.587.587,0,0,0-.228-.345,1.762,1.762,0,0,0-.874-.245,5.047,5.047,0,0,1-2.121-.795,2.516,2.516,0,0,0,.691-.38,1.5,1.5,0,0,0,.6-1.437.345.345,0,0,0-.159-.249c-.152-.066-.3.069-.425.18a1.306,1.306,0,0,1-1.271.377,2.145,2.145,0,0,1-.874-.373.343.343,0,0,1-.028-.038L253,30.485h0a7.52,7.52,0,0,0-2.252-2.111,8.149,8.149,0,0,0-4.284-.833,3.293,3.293,0,0,0-2.764,2.266,2.528,2.528,0,0,0-2.5-.525h-.021a3.189,3.189,0,0,0-1.976,2.052c-.021.048-.038.1-.059.149a3.693,3.693,0,0,1-1.382,1.074c-.093.041-.2.093-.225.193a.294.294,0,0,0,.128.263,1.835,1.835,0,0,0,.722.373,3.8,3.8,0,0,1-.38.615c-.124.162-.269.345-.2.553a.387.387,0,0,0,.387.225,1.14,1.14,0,0,0,.453-.145l-.394.691a2.183,2.183,0,0,0,1.012.048c.1.9.059,2.549.218,3.171a3.677,3.677,0,0,1,1.1.173c.4.183.155.9.719.75.283-.073.822-1.061.947-1.33a13.714,13.714,0,0,0,1.244-5.693,4.37,4.37,0,0,1,1.461-.808l-.045.031a4.02,4.02,0,0,1,3.026.128,6.224,6.224,0,0,1,1.482,1.886,5.03,5.03,0,0,0,3.482,2.211c.017,1.067-.138,2.791-.2,3.779l1.064-1.869h0c.079-.107.149-.218.218-.325l.021-.035h0a5.493,5.493,0,0,1,.345-.529h0a.618.618,0,0,0,.971-.7,1.443,1.443,0,0,0-.263-.345.985.985,0,0,0,.895.345.77.77,0,0,0,.625-.691.653.653,0,0,0-.325-.563,2.207,2.207,0,0,0,1.275-.131C257.792,34.72,258.079,34.52,258.014,34.2Z"
        transform="translate(-209.313 -27.516)"
        fill="#263238"
      />
      <path
        id="Path_514"
        data-name="Path 514"
        d="M247.519,35.64a3.429,3.429,0,0,0-.387.28,2.528,2.528,0,0,0-.667,1.1,4.411,4.411,0,0,0-.19.874c-.038.321-.052.67-.069,1.036a9.122,9.122,0,0,1-.1,1.147,4.144,4.144,0,0,1-.145.594,1.3,1.3,0,0,1-.314.556.532.532,0,0,1-.511.111.812.812,0,0,1-.415-.3,1.828,1.828,0,0,1-.235-.926l.073.017a2.963,2.963,0,0,1-.508.691,1.037,1.037,0,0,1-.722.294.691.691,0,0,1-.345-.1.588.588,0,0,1-.218-.269.632.632,0,0,1-.038-.318.425.425,0,0,1,.145-.259l.031.038a2.253,2.253,0,0,1-.812.477c-.1.035-.187.052-.242.066a.276.276,0,0,1-.086,0l.083-.024c.052-.017.135-.038.235-.076a2.318,2.318,0,0,0,.788-.487l.035.035a.456.456,0,0,0-.083.518.57.57,0,0,0,.2.238.656.656,0,0,0,.321.09.984.984,0,0,0,.67-.28,2.918,2.918,0,0,0,.491-.67l.062-.1V40.1a1.789,1.789,0,0,0,.225.884.718.718,0,0,0,.373.269.439.439,0,0,0,.432-.093,1.2,1.2,0,0,0,.29-.522,3.952,3.952,0,0,0,.145-.58,8.859,8.859,0,0,0,.107-1.14c.021-.345.038-.712.076-1.036a4.592,4.592,0,0,1,.2-.888,2.515,2.515,0,0,1,.691-1.1A1.441,1.441,0,0,1,247.519,35.64Z"
        transform="translate(-212.076 -32.834)"
        fill="#455a64"
      />
      <path
        id="Path_515"
        data-name="Path 515"
        d="M269.136,36.927l-.031.021-.093.055a.984.984,0,0,1-.159.076c-.066.028-.138.062-.225.09a3.133,3.133,0,0,1-1.523.1,4,4,0,0,1-2.017-1.016,6.909,6.909,0,0,1-1.572-2.29c-.2-.453-.345-.909-.546-1.333a4.622,4.622,0,0,0-.656-1.154,2.418,2.418,0,0,0-.936-.722,1.606,1.606,0,0,0-.525-.121,1.784,1.784,0,0,0-.494.038,2.021,2.021,0,0,0-.777.345,2.1,2.1,0,0,0-.453.466,2.149,2.149,0,0,0-.238.5v-.038l.028-.1a1.724,1.724,0,0,1,.176-.38,1.989,1.989,0,0,1,.452-.484,2.011,2.011,0,0,1,.791-.377,2.046,2.046,0,0,1,.511-.045,1.827,1.827,0,0,1,.546.121,2.474,2.474,0,0,1,.988.757,4.593,4.593,0,0,1,.691,1.164c.183.432.346.884.546,1.333a6.91,6.91,0,0,0,1.527,2.27,3.983,3.983,0,0,0,1.976,1.016,3.151,3.151,0,0,0,1.5-.073,5.177,5.177,0,0,0,.511-.218Z"
        transform="translate(-223.289 -29.506)"
        fill="#455a64"
      />
      <path
        id="Path_516"
        data-name="Path 516"
        d="M282.964,44.114a.783.783,0,0,1-.138.073,2.531,2.531,0,0,1-.39.145,3.88,3.88,0,0,1-.608.128,3.8,3.8,0,0,1-1.51-.124,3.536,3.536,0,0,1-.58-.221,2.619,2.619,0,0,1-.363-.211.577.577,0,0,1-.124-.093,5.224,5.224,0,0,0,.511.249,4.026,4.026,0,0,0,.573.2,4.587,4.587,0,0,0,.736.128,4.491,4.491,0,0,0,.75,0,4.036,4.036,0,0,0,.6-.107C282.749,44.19,282.964,44.1,282.964,44.114Z"
        transform="translate(-236.615 -38.181)"
        fill="#455a64"
      />
      <path
        id="Path_517"
        data-name="Path 517"
        d="M263.457,71.685c-.021-.09-.6.073-1.157-.314s-.66-1.036-.743-1.012-.076.173,0,.435a1.513,1.513,0,0,0,.587.853,1.326,1.326,0,0,0,.96.228C263.343,71.83,263.471,71.723,263.457,71.685Z"
        transform="translate(-224.995 -55.558)"
        fill="#263238"
      />
      <path
        id="Path_518"
        data-name="Path 518"
        d="M193.816,88.649a3.779,3.779,0,0,0-4.145.95c-1.834,1.966-8.591,15.1-9.483,17.583-1.461,4.076,1.693,7.562,4.318,7.7s12.9-3.161,12.9-3.161l-2.239-5.893-6.564.522,5.1-10.212Z"
        transform="translate(-171.531 -67.361)"
        fill="#455a64"
      />
      <path
        id="Path_519"
        data-name="Path 519"
        d="M252.86,112.762s2.529,12.816,3.731,13.853,10.709,5.3,10.709,5.3l2.85-4.632-7.569-4.6-.035-9.731a6.588,6.588,0,0,0-2.435-5.382Z"
        transform="translate(-219.342 -79.909)"
        fill="#455a64"
      />
      <path
        id="Path_520"
        data-name="Path 520"
        d="M222.843,88.9l-1.727,2.214-1.05-2.743-6.042-3.921-1.762,1.689s-6.774.131-7.213.463c-.974.736-2.764,11.707-2.764,11.707L198.851,119c-.29.829,2.591,1.409,4.259,1.817l15.373,2.2s1.831.435,2.349-.691c.418-.909,1.292-10.464,2.176-15.683.235-1.382.446-6.315.446-6.315l1.71-7.631-1.852-1.382Z"
        transform="translate(-183.977 -64.782)"
        fill="#455a64"
      />
      <path
        id="Path_521"
        data-name="Path 521"
        d="M207.637,126.74a3.148,3.148,0,0,1-.29.719c-.2.435-.494,1.036-.822,1.679s-.639,1.237-.867,1.658a3.134,3.134,0,0,1-.408.66,3.618,3.618,0,0,1,.294-.719c.2-.435.491-1.036.819-1.679s.639-1.233.867-1.655a3.581,3.581,0,0,1,.408-.663Z"
        transform="translate(-188.179 -92.463)"
        fill="#263238"
      />
      <path
        id="Path_522"
        data-name="Path 522"
        d="M245.43,91.883a6.516,6.516,0,0,1-.608.691c-.394.418-.957,1-1.62,1.679l-.052.052-.062-.045c-.428-.325-.891-.691-1.382-1.088-1.061-.884-1.969-1.727-2.608-2.384-.318-.318-.57-.584-.739-.774a1.455,1.455,0,0,1-.249-.3,1.862,1.862,0,0,1,.3.256l.781.732c.656.615,1.579,1.454,2.636,2.335.47.394.929.763,1.351,1.1h-.111c.674-.67,1.254-1.237,1.669-1.634A5.728,5.728,0,0,1,245.43,91.883Z"
        transform="translate(-209.687 -68.225)"
        fill="#263238"
      />
      <path
        id="Path_523"
        data-name="Path 523"
        d="M271.708,117.14a22.462,22.462,0,0,1-.211,2.815,21.377,21.377,0,0,1-.387,2.8,22.459,22.459,0,0,1,.211-2.819,21.231,21.231,0,0,1,.387-2.795Z"
        transform="translate(-231.287 -86.179)"
        fill="#263238"
      />
      <path
        id="Path_524"
        data-name="Path 524"
        d="M292.85,154.36s1.886-3.175,2.283-3.047.6.947.363,1.555-.905,3.047-.905,3.047Z"
        transform="translate(-245.517 -108.545)"
        fill="#ffbf9d"
      />
      <path
        id="Path_525"
        data-name="Path 525"
        d="M274.549,317.161l-1.872,8.446s8.059,4.121,7.866,5.714L263.93,328.9l2.38-13.283Z"
        transform="translate(-226.588 -216.094)"
        fill="#455a64"
      />
      <g
        id="Group_108"
        data-name="Group 108"
        transform="translate(40.507 107.858)"
        opacity="0.6"
      >
        <path
          id="Path_526"
          data-name="Path 526"
          d="M273.7,339.74a.691.691,0,0,0-.608.691.667.667,0,0,0,.691.611.725.725,0,0,0,.639-.729.691.691,0,0,0-.767-.556"
          transform="translate(-273.09 -339.74)"
          fill="#fff"
        />
      </g>
      <g
        id="Group_109"
        data-name="Group 109"
        transform="translate(37.342 111.464)"
        opacity="0.6"
      >
        <path
          id="Path_527"
          data-name="Path 527"
          d="M263.93,351.52l.242-1.34,15.96,2.9a1.154,1.154,0,0,1,.477.995Z"
          transform="translate(-263.93 -350.18)"
          fill="#fff"
        />
      </g>
      <path
        id="Path_528"
        data-name="Path 528"
        d="M286.9,344.2c-.017.079-.428.041-.87.228s-.719.487-.788.442.138-.491.691-.691S286.935,344.133,286.9,344.2Z"
        transform="translate(-240.531 -234.724)"
        fill="#263238"
      />
      <path
        id="Path_529"
        data-name="Path 529"
        d="M292.232,347.322c0,.079-.37.152-.708.442s-.48.639-.56.618-.048-.484.376-.836S292.243,347.243,292.232,347.322Z"
        transform="translate(-244.26 -236.808)"
        fill="#263238"
      />
      <path
        id="Path_530"
        data-name="Path 530"
        d="M296.337,351.574c-.076,0-.114-.418.173-.822s.691-.511.722-.435-.256.266-.487.6S296.419,351.574,296.337,351.574Z"
        transform="translate(-247.764 -238.791)"
        fill="#263238"
      />
      <path
        id="Path_531"
        data-name="Path 531"
        d="M287.408,337.844c-.048.069-.4-.111-.86-.166s-.843.028-.871-.052.363-.3.909-.231S287.46,337.789,287.408,337.844Z"
        transform="translate(-240.821 -230.339)"
        fill="#263238"
      />
      <g
        id="Group_110"
        data-name="Group 110"
        transform="translate(39.159 101.308)"
        opacity="0.3"
      >
        <path
          id="Path_532"
          data-name="Path 532"
          d="M277.619,322.21l-.332,1.506-8.1-1.568.238-1.368Z"
          transform="translate(-269.19 -320.78)"
        />
      </g>
      <path
        id="Path_533"
        data-name="Path 533"
        d="M200.252,362.863l-1.071,8.584s8.412,3.347,8.367,4.954l-16.768-.864,1.112-13.438Z"
        transform="translate(-178.707 -246.518)"
        fill="#455a64"
      />
      <g
        id="Group_111"
        data-name="Group 111"
        transform="translate(14.823 123.744)"
        opacity="0.6"
      >
        <path
          id="Path_534"
          data-name="Path 534"
          d="M199.287,385.732a.691.691,0,0,0-.542.736.656.656,0,0,0,.725.542.722.722,0,0,0,.57-.784.691.691,0,0,0-.819-.48"
          transform="translate(-198.742 -385.728)"
          fill="#fff"
        />
      </g>
      <g
        id="Group_112"
        data-name="Group 112"
        transform="translate(12.073 127.666)"
        opacity="0.6"
      >
        <path
          id="Path_535"
          data-name="Path 535"
          d="M190.78,398.434l.114-1.354,16.16,1.382a1.171,1.171,0,0,1,.573.95Z"
          transform="translate(-190.78 -397.08)"
          fill="#fff"
        />
      </g>
      <path
        id="Path_536"
        data-name="Path 536"
        d="M212.867,388.8c0,.079-.422.079-.846.307s-.67.553-.739.511.09-.5.608-.763S212.9,388.725,212.867,388.8Z"
        transform="translate(-192.116 -263.929)"
        fill="#263238"
      />
      <path
        id="Path_537"
        data-name="Path 537"
        d="M218.505,391.459c0,.079-.345.186-.66.508s-.421.691-.5.667-.093-.477.3-.867S218.512,391.38,218.505,391.459Z"
        transform="translate(-196.066 -265.707)"
        fill="#263238"
      />
      <path
        id="Path_538"
        data-name="Path 538"
        d="M223,395.3c-.076,0-.155-.408.1-.836s.646-.573.691-.5-.228.287-.428.643S223.081,395.3,223,395.3Z"
        transform="translate(-199.747 -267.364)"
        fill="#263238"
      />
      <path
        id="Path_539"
        data-name="Path 539"
        d="M212.7,382.536c-.038.073-.4-.073-.867-.083s-.839.1-.874.031.345-.345.881-.318S212.738,382.477,212.7,382.536Z"
        transform="translate(-191.912 -259.651)"
        fill="#263238"
      />
      <g
        id="Group_113"
        data-name="Group 113"
        transform="translate(12.933 117.389)"
        opacity="0.3"
      >
        <path
          id="Path_540"
          data-name="Path 540"
          d="M201.668,367.986l-.19,1.53-8.208-.8.111-1.382Z"
          transform="translate(-193.27 -367.33)"
        />
      </g>
      <circle
        id="Ellipse_7"
        data-name="Ellipse 7"
        cx="6.394"
        cy="6.394"
        r="6.394"
        transform="translate(0 20.145) rotate(-83.67)"
        fill="#4ba541"
      />
      <path
        id="Path_541"
        data-name="Path 541"
        d="M249.272,137.677l-6.38-14.813L177.536,60.79l-8.626,9.531,65.01,61.6Z"
        transform="translate(-164.392 -49.296)"
        fill="#4ba541"
      />
      <g
        id="Group_114"
        data-name="Group 114"
        transform="translate(69.528 73.491)"
        opacity="0.7"
      >
        <path
          id="Path_542"
          data-name="Path 542"
          d="M357.1,249.394a.955.955,0,0,1,1.25-.85,2.871,2.871,0,0,1,3.382-4.259,3.347,3.347,0,0,1,4.384-3.841l6.336,14.7Z"
          transform="translate(-357.1 -240.255)"
          fill="#fff"
        />
      </g>
      <path
        id="Path_543"
        data-name="Path 543"
        d="M387.06,266.032s-3.009-.691-3.72,3.6l6.287,2.356Z"
        transform="translate(-304.747 -183.61)"
        fill="#263238"
      />
      <path
        id="Path_544"
        data-name="Path 544"
        d="M247.723,127.372l-64.8-61L187,61.64l65.066,61.78.045.111a3.223,3.223,0,0,0-1.461-.166,3.454,3.454,0,0,0-1.776.746,3.288,3.288,0,0,0-1.168,2.007A3.4,3.4,0,0,0,247.723,127.372Z"
        transform="translate(-173.563 -49.852)"
        opacity="0.3"
      />
      <path
        id="Path_545"
        data-name="Path 545"
        d="M235.184,146.922,170.011,85l-1.081,1.254,65,61.49a1.016,1.016,0,0,1,1.019-.909A1.341,1.341,0,0,1,235.184,146.922Z"
        transform="translate(-164.405 -65.142)"
        opacity="0.3"
      />
      <path
        id="Path_546"
        data-name="Path 546"
        d="M377.781,250.961a.228.228,0,0,0-.138-.111.346.346,0,0,0-.418.207,1.347,1.347,0,0,0,0,.815.808.808,0,0,0,.262.425.546.546,0,0,0,.522.117.74.74,0,0,0,.411-.439,2.419,2.419,0,0,0,.159-.67,3.69,3.69,0,0,0-.128-1.513.95.95,0,0,0-.494-.6.846.846,0,0,0-.788.128,2.256,2.256,0,0,0-.691,1.6,3.2,3.2,0,0,0,1.492,2.971.836.836,0,0,0,.736.024,1.552,1.552,0,0,0,.553-.47,4.519,4.519,0,0,0,.622-1.178,4.944,4.944,0,0,0,.269-1.914c-.017-.231-.041-.408-.062-.525s-.028-.183-.028-.183a3.608,3.608,0,0,1,.124.691,4.837,4.837,0,0,1-.245,1.938,4.541,4.541,0,0,1-.622,1.2,1.631,1.631,0,0,1-.58.5.915.915,0,0,1-.8-.024,3.268,3.268,0,0,1-1.544-3.05,3.171,3.171,0,0,1,.2-.919,1.654,1.654,0,0,1,.532-.746A.922.922,0,0,1,378,249.1a1.013,1.013,0,0,1,.539.653,3.763,3.763,0,0,1,.124,1.551,2.36,2.36,0,0,1-.169.691.8.8,0,0,1-.456.473.622.622,0,0,1-.577-.135.887.887,0,0,1-.273-.459,1.358,1.358,0,0,1,.028-.839.373.373,0,0,1,.456-.211A.216.216,0,0,1,377.781,250.961Z"
        transform="translate(-300.191 -172.519)"
        fill="#fff"
      />
      <path
        id="Path_547"
        data-name="Path 547"
        d="M373.546,252.857a2.8,2.8,0,0,0,.159-.484,3.478,3.478,0,0,0,.035-1.382,8.775,8.775,0,0,0-.608-1.966,7.761,7.761,0,0,1-.67-2.446,4.369,4.369,0,0,1,.622-2.449,4.221,4.221,0,0,1,1.472-1.451,4.177,4.177,0,0,1,1.3-.5,2.857,2.857,0,0,1,.508-.066l-.128.024a2.011,2.011,0,0,0-.373.073,4.474,4.474,0,0,0-1.278.529,4.194,4.194,0,0,0-1.434,1.441,4.311,4.311,0,0,0-.6,2.4,7.759,7.759,0,0,0,.656,2.418,8.543,8.543,0,0,1,.594,1.986,3.422,3.422,0,0,1-.062,1.382A1.977,1.977,0,0,1,373.546,252.857Z"
        transform="translate(-297.624 -167.979)"
        fill="#fff"
      />
      <path
        id="Path_548"
        data-name="Path 548"
        d="M365.3,258.061a1.3,1.3,0,0,0,.632-.691,7.569,7.569,0,0,0,.345-2.315,12.834,12.834,0,0,0-.159-2.346c-.048-.3-.1-.535-.128-.691a1.356,1.356,0,0,1-.045-.259s.031.09.079.252.1.4.155.691a11.59,11.59,0,0,1,.083,3.658A3.846,3.846,0,0,1,366,257.4a1.31,1.31,0,0,1-.449.563A.746.746,0,0,1,365.3,258.061Z"
        transform="translate(-292.939 -174.295)"
        fill="#fff"
      />
      <path
        id="Path_549"
        data-name="Path 549"
        d="M360.777,253.52a2.514,2.514,0,0,1,.2.491,2.905,2.905,0,0,1,.173,1.278,1.485,1.485,0,0,1-.643,1.1,1.035,1.035,0,0,1-.366.148.3.3,0,0,1-.142,0,1.626,1.626,0,0,0,.473-.211,1.475,1.475,0,0,0,.587-1.057,3.183,3.183,0,0,0-.142-1.244A4.379,4.379,0,0,1,360.777,253.52Z"
        transform="translate(-289.47 -175.447)"
        fill="#fff"
      />
      <path
        id="Path_550"
        data-name="Path 550"
        d="M381.223,263.027l-.028-.073c-.017-.048-.045-.117-.069-.207a.952.952,0,0,1-.048-.345,1,1,0,0,1,.162-.439,10.755,10.755,0,0,1,.691-.978,8.942,8.942,0,0,0,.739-1.257,16.353,16.353,0,0,0,.922-2.491c.086-.283.162-.539.232-.774a2.02,2.02,0,0,1,.093-.283,2.019,2.019,0,0,1-.059.294c-.045.183-.114.453-.2.781a14.9,14.9,0,0,1-.905,2.515,8.152,8.152,0,0,1-.753,1.264c-.269.366-.539.67-.712.96a.867.867,0,0,0-.135.75,2.1,2.1,0,0,1,.073.283Z"
        transform="translate(-303.266 -177.188)"
        fill="#fff"
      />
      <rect
        id="Rectangle_70"
        data-name="Rectangle 70"
        width="13.552"
        height="4.632"
        rx="0.95"
        transform="translate(1.189 18.185) rotate(-45.17)"
        fill="#e0e0e0"
      />
      <path
        id="Path_551"
        data-name="Path 551"
        d="M171.968,55.968a.757.757,0,0,0,.045-.076.314.314,0,0,0,.017-.252c-.035-.111-.169-.193-.287-.321l-.432-.418-1.181-1.15-.736-.708-.2-.2a.5.5,0,0,0-.2-.152.27.27,0,0,0-.228.035c-.059.045-.135.135-.2.2-2.287,2.311-5.43,5.489-8.906,8.982a.238.238,0,0,0-.024.307c.079.093.207.211.311.314l.646.643,1.257,1.268.615.611a.245.245,0,0,0,.29.059.287.287,0,0,0,.062-.045l.076-.076.149-.149,1.161-1.164,4.045-4.035,2.726-2.7.729-.729.2-.183.073-.062a.37.37,0,0,1-.059.073l-.187.2-.715.75-2.684,2.743c-1.143,1.154-2.5,2.525-4,4.049-.377.38-.76.77-1.157,1.168l-.149.149-.073.076a.428.428,0,0,1-.111.079.421.421,0,0,1-.491-.09l-.615-.611L160.468,63.3l-.646-.643c-.111-.114-.211-.2-.345-.345a.425.425,0,0,1,.045-.539l8.944-8.958a2.716,2.716,0,0,1,.225-.214.411.411,0,0,1,.345-.048.645.645,0,0,1,.249.187l.193.2.725.732,1.161,1.175.421.428c.114.131.245.218.283.345a.346.346,0,0,1-.035.273A.19.19,0,0,1,171.968,55.968Z"
        transform="translate(-158.168 -43.894)"
        fill="#263238"
      />
      <path
        id="Path_552"
        data-name="Path 552"
        d="M163.12,76.68a14.288,14.288,0,0,1,1.686,1.492,14.48,14.48,0,0,1,1.568,1.624,14.057,14.057,0,0,1-1.693-1.492A14.385,14.385,0,0,1,163.12,76.68Z"
        transform="translate(-160.602 -59.696)"
        fill="#263238"
      />
      <path
        id="Path_553"
        data-name="Path 553"
        d="M172.83,66.28a19.3,19.3,0,0,1,1.8,1.5,20.567,20.567,0,0,1,1.727,1.565,12.026,12.026,0,0,1-1.845-1.43A12.6,12.6,0,0,1,172.83,66.28Z"
        transform="translate(-166.958 -52.889)"
        fill="#263238"
      />
      <path
        id="Path_554"
        data-name="Path 554"
        d="M187.954,57.949a14.206,14.206,0,0,1-1.727-1.492,14.7,14.7,0,0,1-1.617-1.627,14.68,14.68,0,0,1,1.727,1.5,14.854,14.854,0,0,1,1.617,1.624Z"
        transform="translate(-174.669 -45.394)"
        fill="#263238"
      />
      <path
        id="Path_555"
        data-name="Path 555"
        d="M234.815,121.411s-3.078.345-4,.463-2.163.383-2.594,1.116c-.176.3-2.874,4.246-2.874,4.246l-1.036.29,1.648,4.532,2.788-1.382s.947-1.064,1.7-2.073.985-1.382.985-1.382,2.764.128,3.32-.345a.691.691,0,0,0,.117-.732l-3.005-.263s3.268,0,3.8-.37a1.381,1.381,0,0,0,.128-.1.511.511,0,0,0-.377-.86l-3.52-.024s4.042-.366,4.145-.819a1.844,1.844,0,0,0,.028-.221.491.491,0,0,0-.508-.522l-3.3.1s3.192-.508,3.223-.957C235.547,121.262,234.815,121.411,234.815,121.411Z"
        transform="translate(-200.654 -88.968)"
        fill="#ffbf9d"
      />
      <path
        id="Path_556"
        data-name="Path 556"
        d="M194.34,141.249a5.126,5.126,0,0,1,3.769-2.2l6.716-.715,2.011,6.287-9.645,2.511"
        transform="translate(-181.037 -100.049)"
        fill="#455a64"
      />
      <path
        id="Path_557"
        data-name="Path 557"
        d="M197.19,146.939a.69.69,0,0,1,.18-.066l.532-.152,2-.546,6.909-1.831-.059.111-1.206-3.759c-.276-.867-.546-1.727-.808-2.529l.093.062-4.442.459-1.907.2a6.118,6.118,0,0,0-1.606.3,5.144,5.144,0,0,0-1.976,1.223c-.387.394-.542.656-.56.646a1.384,1.384,0,0,1,.114-.19,4.235,4.235,0,0,1,.4-.5,5.04,5.04,0,0,1,1.983-1.292,6.337,6.337,0,0,1,1.63-.345l1.9-.211,4.443-.484h.073l.021.069c.263.812.532,1.658.808,2.525.421,1.316.826,2.584,1.2,3.759l.028.09-.086.021-6.909,1.769-2.011.5-.542.128A1.063,1.063,0,0,1,197.19,146.939Z"
        transform="translate(-181.037 -99.86)"
        fill="#263238"
      />
      <path
        id="Path_558"
        data-name="Path 558"
        d="M296.081,159.048s1.931-.66,2.442-.311a1.9,1.9,0,0,1,.691.915.865.865,0,0,1,.829,1.24,1.037,1.037,0,0,1,.722,1.416s.76-.021.4.981a12.577,12.577,0,0,1-2.27,3.258c-.736.556-.94-.325-.76-.691s1.2-2.259,1.2-2.259-1.758,2.764-2.352,2.3c-.345-.263-.266-.67.183-1.482.311-.563.881-1.675.881-1.675l-1.382,1.707a.48.48,0,0,1-.85-.211.97.97,0,0,1,.069-.518,11.3,11.3,0,0,1,1.036-1.865l-1.123,1.1a.6.6,0,0,1-.888-.052.584.584,0,0,1-.086-.649,20.12,20.12,0,0,1,2.021-2.418Z"
        transform="translate(-246.768 -113.34)"
        fill="#ffbf9d"
      />
      <path
        id="Path_559"
        data-name="Path 559"
        d="M200.936,186.09s-1.6,8.049.028,11.555,5.907,5.182,10.364,6.564c5.945,1.821,16.219,7.476,16.219,7.476s-1.33,5.873-2.207,9.369c-.843,3.368-3.2,15.628-3.2,15.628l10.809,1.492,7.707-27.736s2.152-5.7-2.525-8.522c-4.007-2.418-18.178-11.987-18.178-11.987l-1.1-2.539Z"
        transform="translate(-184.894 -131.311)"
        fill="#263238"
      />
      <path
        id="Path_560"
        data-name="Path 560"
        d="M192.9,207.01l2.011,4.612-2.736,21.9a88.772,88.772,0,0,0-2.86,11c-.518,3.8-1.662,19.1-1.662,19.1h10.595s1.644-18.62,4.836-24.213c2.5-4.4,4.2-12.07,4.308-12.571s3.8-12.782,3.8-12.782l-5.182-10.65Z"
        transform="translate(-176.659 -142.647)"
        fill="#263238"
      />
      <path
        id="Path_561"
        data-name="Path 561"
        d="M283.057,252.75a11.584,11.584,0,0,0-3.717,2.594,2.033,2.033,0,0,1,.4-.546,7.406,7.406,0,0,1,1.233-1.078,7.252,7.252,0,0,1,1.44-.781A1.976,1.976,0,0,1,283.057,252.75Z"
        transform="translate(-236.674 -174.943)"
        fill="#455a64"
      />
      <path
        id="Path_562"
        data-name="Path 562"
        d="M232.846,238.183l-.19-.017-.556-.069-2.145-.28-7.925-1.064h-.066v-.066c.611-3.2,1.344-7.013,2.214-11.248.218-1.061.446-2.145.691-3.251l.791-3.382c.542-2.3,1.1-4.681,1.675-7.127l.045.1c-.791-.432-1.648-.884-2.511-1.337-2.418-1.257-4.781-2.418-7.106-3.5a57.877,57.877,0,0,0-6.85-2.719,29.425,29.425,0,0,1-6.187-2.532,11.4,11.4,0,0,1-2.418-1.838,7.6,7.6,0,0,1-1.575-2.315,8.675,8.675,0,0,1-.57-2.484c-.038-.4-.073-.791-.076-1.168s0-.746,0-1.1a34.394,34.394,0,0,1,.259-3.62c.117-.988.242-1.751.345-2.266.048-.256.086-.449.114-.587s.045-.2.045-.2a1.091,1.091,0,0,1-.028.2c-.028.131-.052.345-.093.587-.079.518-.193,1.285-.3,2.273a36.2,36.2,0,0,0-.228,3.613c0,.345,0,.719.021,1.092s.041.763.083,1.161a8.518,8.518,0,0,0,.573,2.446,7.4,7.4,0,0,0,1.558,2.266,11.327,11.327,0,0,0,2.391,1.81,30.744,30.744,0,0,0,6.163,2.5,57.687,57.687,0,0,1,6.874,2.715c2.328,1.071,4.708,2.249,7.116,3.506.867.453,1.727.905,2.515,1.34l.062.031-.017.066c-.577,2.449-1.14,4.836-1.682,7.13l-.795,3.379c-.252,1.1-.48,2.187-.691,3.244-.877,4.232-1.624,8.042-2.252,11.241l-.052-.073,7.914,1.119,2.142.311.556.083A1.348,1.348,0,0,1,232.846,238.183Z"
        transform="translate(-184.798 -131.324)"
        fill="#455a64"
      />
    </g>
  </g>
</svg>
